<svg
    id="Capa_1"
    height="512"
    viewBox="0 0 512 512"
    width="512"
    xmlns="http://www.w3.org/2000/svg"
  >
    <g>
      <circle cx="256" cy="256" fill="#25c2a0" r="256" />
      <g>
        <g>
          <path
            d="m510.962 278.976-75.84-75.84-35.402 8.108-108.631-108.632-51.906 152.83-60.914-60.914-87.626 186.925 127.796 127.797c12.261 1.803 24.8 2.75 37.561 2.75 133.639 0 243.341-102.406 254.962-233.024z"
            fill="#25c2a0"
          />
        </g>
      </g>
      <g>
        <path
          d="m413.655 192.939h-112.155v-67.164c0-16.347-12.816-30.164-29.157-30.613-16.954-.465-30.843 13.14-30.843 29.988.267 61.071-10.512 68.025-30 103.85h-66.463v117.98h66.463v30.833c0 10.513 8.523 19.036 19.036 19.036h99.484 59.748.32c10.557 0 19.564-8.17 20.014-18.718.471-11.054-8.233-20.171-19.124-20.409l.001-.022h4.208c15.3 0 27.702-12.403 27.702-27.702 0-12.202-7.893-22.554-18.849-26.249h.381c15.3 0 27.702-12.403 27.702-27.702 0-13.88-10.209-25.64-23.527-27.702h5.059c15.3 0 27.702-12.403 27.702-27.702 0-15.301-12.403-27.704-27.702-27.704z"
          fill="#ffccbd"
        />
        <g>
          <path
            d="m429.421 287.99h-284.384v58.99h66.463v30.833c0 10.513 8.523 19.036 19.036 19.036h159.232.32c10.557 0 19.564-8.17 20.014-18.718.471-11.054-8.232-20.171-19.124-20.409l.001-.022h4.208c15.3 0 27.702-12.403 27.702-27.702 0-12.202-7.893-22.554-18.849-26.249h.381c11.022 0 20.54-6.438 25-15.759z"
            fill="#ffbda9"
          />
        </g>
        <path d="m90.643 194.528h87.626v186.926h-87.626z" fill="#fff" />
        <path d="m90.643 287.99h87.626v93.463h-87.626z" fill="#e3eaee" />
      </g>
    </g>
  </svg>